# xmcd
# 
# Track frame offsets:
#     150
#     27477
#     48992
#     70360
#     91067
#     112800
#     130675
#     152815
#     173510
#     192717
#     212425
# 
# Disc length: 3221
# 
# Revision: 3
# Processed by: cddbd v1.5.2PL0 Copyright (c) Steve Scherf et al.
# Submitted via: fre:ac v1.0.31
# 
DISCID=8d0c930b
DTITLE=原田知世 - Egg Shell
DYEAR=1995
DGENRE=JPop
TTITLE0=Une belle histoire
TTITLE1=月が横切る十三夜
TTITLE2=月とボロ靴とわたし
TTITLE3=記憶の翼
TTITLE4=野営(1912からずっと)
TTITLE5=Attends ou va-t’en
TTITLE6=のっぽのジャスティス・ちびのギルティ
TTITLE7=夜にはつぐみの口の中で
TTITLE8=UMA
TTITLE9=空から降ってきた卵色のバカンス
TTITLE10=TEN VA PAS(REMIX VERSION)
EXTD=
EXTT0=
EXTT1=
EXTT2=
EXTT3=
EXTT4=
EXTT5=
EXTT6=
EXTT7=
EXTT8=
EXTT9=
EXTT10=
PLAYORDER=
